<svg version="1.1" id="Layer_1" xmlns="http://www.w3.org/2000/svg" xmlns:xlink="http://www.w3.org/1999/xlink" x="0px" y="0px"
	 width="100%" viewBox="0 0 1024 1024" enable-background="new 0 0 1024 1024" xml:space="preserve">
<path fill="#000000" opacity="1.000000" stroke="none" 
	d="
M547.529724,513.541504 
	C539.640564,521.104126 530.810974,526.101624 520.298401,528.004639 
	C507.612000,530.301025 499.951233,523.926086 499.597473,511.127747 
	C499.239990,498.195190 504.457520,486.797180 508.831024,475.151001 
	C510.935883,469.545929 513.371826,464.064819 515.674744,458.534637 
	C516.472961,456.617828 517.023621,454.774323 515.356384,452.970917 
	C513.602295,451.073578 511.532043,451.043091 509.410736,451.976410 
	C500.473572,455.908447 492.912689,461.405396 489.225891,470.892365 
	C481.810242,489.974487 474.444061,509.076385 467.196869,528.222900 
	C465.968140,531.469177 464.379974,533.416992 460.663025,533.929504 
	C451.994385,535.124756 443.386078,536.757629 434.789032,538.207214 
	C433.850647,535.988647 434.990051,534.581970 435.567688,533.123291 
	C444.269012,511.149170 453.005096,489.188904 461.728516,467.223572 
	C462.219788,465.986572 462.813171,464.767029 463.114502,463.482056 
	C463.917847,460.056122 461.680664,457.520050 458.447327,458.789886 
	C449.150330,462.441132 440.513885,467.473328 436.487579,477.149261 
	C428.239258,496.971344 420.436737,516.981384 412.665680,536.997437 
	C411.270264,540.591675 409.392517,542.122009 405.493591,542.542114 
	C397.484741,543.405029 389.548798,544.944702 380.866943,546.319092 
	C382.079102,542.187195 383.042389,538.903625 384.205627,534.938354 
	C372.808289,543.217468 361.133606,549.722290 347.793610,552.676025 
	C338.435883,554.747986 329.063232,555.598022 319.716888,552.605225 
	C308.780426,549.103210 302.189819,540.892151 302.760437,529.510681 
	C304.369354,497.420715 315.685638,470.518158 345.289459,454.164917 
	C352.815002,450.007782 361.066528,447.602997 369.669037,447.765564 
	C389.048096,448.131744 397.464539,459.114929 392.661591,477.580475 
	C386.292450,502.067566 367.719757,514.329712 342.781982,516.341370 
	C341.291351,516.461609 339.783478,516.366333 338.283691,516.376038 
	C332.440887,516.413818 330.183044,519.566956 331.901123,525.287231 
	C334.011444,532.313660 341.292603,535.382812 351.033447,533.155579 
	C372.858429,528.165344 388.540527,514.952454 399.427673,495.905914 
	C407.813049,481.236053 412.170837,464.830505 418.171753,449.146027 
	C419.948792,444.501343 421.787201,441.613281 427.276459,441.087433 
	C435.123566,440.335754 442.872864,438.562592 450.454071,437.261688 
	C451.797668,440.037689 449.543060,441.661316 450.058868,443.984558 
	C454.052216,442.917938 456.817841,439.865234 460.237579,438.009766 
	C466.903595,434.392944 473.797852,431.639069 481.436096,431.198212 
	C490.199188,430.692413 493.732300,433.183502 497.251923,442.143646 
	C499.430786,442.160034 500.208649,440.211456 501.472412,439.018646 
	C509.391602,431.543640 518.427246,426.184570 529.218567,424.036774 
	C544.895386,420.916626 553.638184,430.071533 549.539978,445.528442 
	C545.600098,460.387939 538.774536,474.172241 533.147644,488.400330 
	C531.484863,492.604828 530.189087,496.875854 529.441040,501.301239 
	C529.110718,503.255280 529.021606,505.579010 531.037842,506.722961 
	C532.964417,507.816040 534.559265,506.208466 535.889648,505.051849 
	C549.416199,493.292023 560.461548,479.545990 566.459900,462.553497 
	C572.116699,446.528381 580.792053,432.854614 594.240845,422.525055 
	C607.251404,412.532104 621.976929,408.360016 638.354675,411.643280 
	C649.558594,413.889313 654.028076,422.752136 653.013123,432.794556 
	C650.639709,456.276703 631.690125,475.082428 608.058899,478.407166 
	C603.925659,478.988708 599.809143,479.601959 595.639587,479.317413 
	C592.357239,479.093384 591.309570,480.544373 591.228394,483.707062 
	C591.019104,491.859741 595.175964,496.091003 603.935242,495.996033 
	C618.057129,495.842896 629.496338,489.170624 639.883606,480.483734 
	C649.754333,472.228760 656.938293,461.955658 661.823181,449.958435 
	C667.936218,434.945160 675.027161,420.484039 686.888916,408.894043 
	C695.088806,400.882019 704.806274,397.648834 716.031921,398.754425 
	C721.899231,399.332275 726.044861,402.850494 729.610718,408.481293 
	C736.128845,393.217194 741.038513,378.187286 746.731934,362.567047 
	C739.115601,362.567047 732.210449,362.275970 725.338196,362.628082 
	C711.380371,363.343323 697.446838,364.522766 683.491699,365.303711 
	C643.383545,367.548218 603.227051,367.142822 563.081848,367.502502 
	C551.120911,367.609650 539.175110,369.029419 527.427368,371.490570 
	C521.989014,372.629944 516.999390,374.949829 512.832642,378.758179 
	C507.139923,383.961243 506.721680,388.942871 511.424316,394.961395 
	C512.429443,396.247742 513.427917,397.539276 514.925232,399.466614 
	C508.627594,402.129211 502.863190,402.287231 497.257080,399.798981 
	C491.016571,397.029175 488.372406,391.491913 487.700958,385.016205 
	C486.481171,373.251465 492.113098,365.214447 502.100525,359.894348 
	C514.829956,353.113678 528.713318,350.884705 542.898621,349.613251 
	C565.931946,347.548737 588.739746,351.425537 611.676575,351.797607 
	C641.008057,352.273407 670.317871,351.350677 699.622742,350.512604 
	C715.239380,350.066040 730.823792,348.550293 746.430969,347.661499 
	C749.649597,347.478241 750.968140,345.870239 752.064026,343.067566 
	C758.747498,325.975281 768.481689,311.119781 783.915588,300.544067 
	C789.169373,296.944061 794.638062,293.829529 800.875549,292.272034 
	C810.772522,289.800720 819.269836,296.048065 819.293762,306.183350 
	C819.332031,322.390656 810.704346,334.064697 798.778992,343.798126 
	C792.000732,349.330566 784.531921,353.589417 775.834045,355.433258 
	C773.193970,355.992920 771.127319,357.023254 770.204163,360.234192 
	C760.139465,395.241760 748.919800,429.894440 737.855713,464.594482 
	C737.252258,466.487152 736.646362,468.418274 736.406982,470.376160 
	C736.194092,472.118195 735.794189,474.231415 737.890625,475.257172 
	C739.659485,476.122650 741.452515,475.681366 743.133606,474.722473 
	C748.484192,471.670502 752.186401,466.928528 755.917725,462.231323 
	C768.197815,446.772491 776.207336,429.096558 782.749573,410.640594 
	C785.028320,404.212158 787.636414,397.900848 790.065430,391.525146 
	C790.745239,389.740845 791.565796,388.139801 793.708923,387.857758 
	C803.068481,386.626007 812.429688,385.407349 821.693848,384.196533 
	C823.236267,386.496552 821.589478,388.031677 820.934143,389.537994 
	C811.632935,410.918732 803.838074,432.885376 795.542053,454.655701 
	C794.543640,457.275940 793.877258,460.076141 793.480164,462.853424 
	C793.215698,464.703339 792.574158,467.115265 794.801697,468.280884 
	C796.668518,469.257782 798.325073,467.891907 799.824097,466.868622 
	C805.138611,463.240723 809.163940,458.292480 812.876465,453.191406 
	C817.671936,446.602692 822.038330,439.697571 826.475220,432.854584 
	C827.844238,430.743164 829.281799,429.140778 832.048950,429.533417 
	C835.176208,429.977173 837.633850,431.625397 839.673584,433.904053 
	C840.452942,434.774689 839.869080,435.816162 839.377625,436.690033 
	C829.779175,453.757080 819.335144,470.189789 803.437317,482.251587 
	C797.542236,486.724243 791.052612,490.138824 783.374512,490.318207 
	C772.612488,490.569672 766.536560,486.422882 762.919128,476.255829 
	C757.971375,480.818390 753.152283,485.359589 747.788879,489.286896 
	C739.203735,495.573334 729.687500,498.216705 719.133179,497.313477 
	C713.722107,496.850433 710.378906,494.797699 705.569092,488.953217 
	C703.294983,488.918213 702.231262,490.845917 700.782410,492.100891 
	C694.311462,497.705963 687.422180,502.607544 679.101929,505.104919 
	C668.418518,508.311584 656.248230,503.670929 654.759644,490.909393 
	C654.644653,489.923950 654.538879,488.915710 653.644409,488.232178 
	C651.421326,488.224335 650.598450,490.130188 649.342773,491.330627 
	C632.535217,507.398499 613.053650,516.892212 589.286377,516.411682 
	C574.538269,516.113464 566.877014,510.709564 562.147278,495.982605 
	C557.500671,502.242279 553.086121,508.158844 547.529724,513.541504 
M704.122131,471.594208 
	C705.822937,469.536743 707.219299,467.345642 708.186035,464.799713 
	C711.842224,455.171204 715.646362,445.598816 719.412354,436.012207 
	C720.205566,433.992981 720.962097,432.001556 720.814880,429.751587 
	C720.446838,424.126556 716.498291,421.416748 711.220093,423.319733 
	C707.176819,424.777527 704.130676,427.564941 701.559875,430.922394 
	C692.325684,442.982208 688.531860,457.362091 684.642395,471.606873 
	C683.056824,477.413849 688.193787,481.156311 693.834717,478.846222 
	C697.561707,477.319977 700.807312,474.996002 704.122131,471.594208 
M776.401794,343.456360 
	C780.385437,341.342499 784.143799,338.864777 787.527405,335.900330 
	C795.448059,328.960846 801.262085,320.571503 804.297668,310.416992 
	C804.909363,308.370605 805.363220,306.033630 803.442627,304.356873 
	C801.529419,302.686676 799.320801,303.356171 797.342285,304.322601 
	C795.262939,305.338226 793.074768,306.337738 791.341064,307.820160 
	C780.765503,316.863007 777.012878,329.489929 773.648254,342.265930 
	C773.119751,344.272552 774.620056,343.882385 776.401794,343.456360 
M602.323364,462.643646 
	C613.573364,460.930542 623.467957,450.595856 623.739563,440.274994 
	C623.864075,435.543488 621.768921,433.943420 617.601074,436.230743 
	C607.239868,441.916992 601.642456,451.538696 596.158447,462.286987 
	C598.632751,462.455566 600.081787,462.554291 602.323364,462.643646 
M340.426086,499.627380 
	C353.566071,500.747162 362.743317,489.634857 364.574493,478.970581 
	C364.919678,476.960510 365.544128,474.505737 363.254456,473.035492 
	C361.196747,471.714172 359.365753,473.069397 357.702667,474.055267 
	C348.593811,479.455109 343.366119,488.153290 338.440765,497.070618 
	C337.757996,498.306824 338.107788,499.346283 340.426086,499.627380 
z"/>
<path fill="#000000" opacity="1.000000" stroke="none" 
	d="
M244.375854,567.557434 
	C246.291443,556.671021 248.179718,546.219666 249.846481,535.733093 
	C250.936462,528.875305 248.896225,522.591675 245.491959,516.722900 
	C244.379761,514.805542 234.375336,511.028748 232.394867,511.602112 
	C230.263351,512.219177 230.042923,514.311951 229.407944,515.926819 
	C222.649521,533.114929 215.857162,550.291809 209.365417,567.581177 
	C207.917587,571.437134 205.692490,572.921753 201.787674,573.429443 
	C195.047241,574.305664 188.373657,575.701965 181.678101,576.913696 
	C180.048737,577.208557 178.442596,577.691711 176.280151,576.666565 
	C178.101822,571.923462 179.881668,567.161682 181.753403,562.436279 
	C194.437744,530.414001 206.987656,498.337158 219.916092,466.413635 
	C224.950378,453.982697 232.200897,443.090851 245.262726,437.501526 
	C245.721954,437.304993 246.155945,436.958771 246.628906,436.899445 
	C250.309509,436.437866 254.076767,432.449249 257.653015,436.369965 
	C261.907288,441.033966 262.086823,448.545410 258.401276,453.234894 
	C250.585938,463.179108 245.632294,474.623474 240.735153,486.130066 
	C239.303970,489.492859 240.341278,491.125641 243.613266,491.935089 
	C251.938293,493.994568 259.725433,492.631622 267.193665,488.533081 
	C280.319183,481.329865 289.120361,463.174225 286.434509,448.582886 
	C284.191406,436.397095 274.406891,428.293060 260.854248,427.395996 
	C231.927811,425.481293 205.702591,445.198242 199.853668,473.479004 
	C198.567871,479.696136 198.858749,486.078644 199.808563,492.360626 
	C200.071518,494.099731 200.372406,495.666870 198.967682,496.980011 
	C193.512558,502.079315 188.036667,507.156403 182.168228,512.614075 
	C177.164871,505.417816 174.120728,496.955353 173.724396,487.744263 
	C172.571396,460.947754 184.674850,440.265503 204.601044,423.681213 
	C223.222626,408.182800 245.194000,401.848297 269.107391,402.808685 
	C293.215240,403.776886 312.469666,419.183960 315.000580,440.409943 
	C318.314819,468.205658 308.084747,492.996246 279.031403,507.057007 
	C276.375702,508.342224 273.602570,509.384918 270.246674,510.811096 
	C282.466217,524.197876 278.329071,539.348145 275.945770,554.226318 
	C275.002197,560.116638 273.481232,565.914307 272.226501,571.754883 
	C270.739532,578.676636 273.370544,583.256775 280.182800,585.440186 
	C286.031616,587.314941 292.033997,586.781738 298.006927,586.345459 
	C299.637360,586.226379 301.228699,585.455017 302.888580,586.126831 
	C304.053040,594.880554 296.030273,607.507874 286.701508,611.285339 
	C277.791931,614.893066 268.556244,615.499878 259.288971,613.025513 
	C247.401138,609.851440 240.653122,599.497925 241.789200,586.214722 
	C242.311325,580.110046 243.414688,574.055054 244.375854,567.557434 
z"/>
<path fill="#000000" opacity="1.000000" stroke="none" 
	d="
M461.776520,585.089233 
	C436.635712,589.406128 411.915833,593.609131 387.205841,597.869385 
	C361.674652,602.271301 336.153503,606.731445 310.623413,611.139771 
	C310.185852,611.215271 309.690826,610.957825 309.262299,610.864441 
	C308.720154,609.261536 309.956940,608.711365 310.775513,607.999634 
	C317.256317,602.364685 321.605347,595.386230 323.595337,587.056946 
	C324.260559,584.272461 325.296997,582.875916 328.387451,582.448242 
	C348.607056,579.650452 368.788086,576.575806 388.994690,573.682312 
	C411.324524,570.484741 433.669403,567.392395 456.005646,564.239075 
	C476.214630,561.386292 496.416718,558.484009 516.629395,555.657410 
	C534.544128,553.152100 552.471130,550.735046 570.389221,548.253662 
	C590.938599,545.407837 611.482239,542.520325 632.031860,539.675964 
	C653.082153,536.762268 674.135376,533.869995 695.189636,530.984497 
	C715.580811,528.189819 735.974487,525.413452 756.367676,522.633179 
	C774.950134,520.099670 793.530823,517.552673 812.117554,515.050903 
	C819.521545,514.054382 826.953613,513.257202 834.343933,512.172302 
	C836.879578,511.800110 838.718811,512.058899 839.144958,514.901489 
	C839.596191,517.911377 837.851013,518.952576 835.133057,519.396179 
	C825.463684,520.974487 815.815430,522.682373 806.164185,524.369995 
	C766.898315,531.236023 727.630981,538.093994 688.370483,544.990906 
	C647.967896,552.088501 607.568420,559.203613 567.175659,566.356628 
	C534.305786,572.177551 501.448120,578.066956 468.584259,583.921570 
	C466.460114,584.300049 464.329437,584.641663 461.776520,585.089233 
z"/>
<path fill="#000000" opacity="1.000000" stroke="none" 
	d="
M562.006104,641.966187 
	C562.273987,642.385315 562.471680,643.097107 562.820007,643.180664 
	C570.459839,645.012146 568.619873,650.876648 567.904907,655.824341 
	C564.406982,680.030151 543.037842,692.583862 524.622192,690.779846 
	C500.432617,688.410217 484.157379,669.071899 485.686127,645.550049 
	C486.931519,626.388245 503.414581,609.564697 522.746094,607.724487 
	C542.694641,605.825500 561.815247,618.957581 566.653931,637.880554 
	C567.880005,642.675476 567.433044,643.176514 562.221436,641.777100 
	C555.945618,622.378113 543.932129,613.167908 525.375916,613.357849 
	C503.556885,613.581177 486.238251,636.621460 492.029907,657.720520 
	C499.359680,684.423035 529.983398,694.231201 551.217773,676.525513 
	C558.306763,670.614563 562.005981,662.708618 562.649048,653.452637 
	C562.758789,651.873108 562.559082,650.430176 560.620850,649.981934 
	C558.859009,649.574341 558.250061,650.833801 557.630615,652.007751 
	C556.542725,654.069702 555.601990,656.211304 554.470581,658.247864 
	C550.545227,665.313232 546.245850,672.081726 538.182373,675.109253 
	C533.640381,676.814636 528.883240,677.532654 525.055847,673.776855 
	C521.333496,670.123962 522.941162,665.786865 524.516113,661.644836 
	C525.398499,659.324280 526.619812,657.098755 526.609314,654.510010 
	C526.601624,652.619202 525.739014,651.223267 523.949097,650.728699 
	C521.855347,650.150146 521.560913,651.984009 521.005432,653.329102 
	C520.306274,655.022034 519.775635,656.798157 518.938843,658.417847 
	C516.777649,662.601013 513.584290,663.368896 508.879974,660.742798 
	C512.141418,652.981689 515.272766,645.117126 518.754333,637.410889 
	C520.631775,633.255249 523.987061,631.237854 528.971497,632.291260 
	C529.473816,636.538025 525.284241,638.932861 525.541870,642.954956 
	C529.873047,644.376526 532.232300,642.050354 533.850281,638.740112 
	C535.549561,635.263489 534.705994,632.287415 531.361694,630.126770 
	C527.537292,627.656006 523.756226,628.152283 520.051941,630.321472 
	C515.909180,632.747437 513.126770,636.115845 513.449646,641.214233 
	C513.589294,643.418152 513.427002,645.537720 510.959839,645.896729 
	C508.418732,646.266418 507.677521,643.971619 507.239594,642.020325 
	C506.920502,640.598572 506.857635,639.029053 507.085632,637.589539 
	C508.463287,628.889587 516.135315,622.143982 525.036743,621.670410 
	C534.238342,621.180969 540.605713,624.809021 542.542969,631.645264 
	C544.716736,639.315735 541.745483,644.826721 532.799194,649.441528 
	C534.294556,653.674561 533.429871,657.874756 532.274353,662.086487 
	C531.730774,664.067871 530.234802,666.357849 532.706970,667.976807 
	C534.989746,669.471802 537.201599,668.352844 539.206177,667.013733 
	C542.309998,664.940186 544.826538,662.225769 546.635864,659.019958 
	C549.334167,654.238892 552.005981,649.403748 554.156555,644.364380 
	C556.002686,640.038452 558.210266,638.926270 562.006104,641.966187 
z"/>
<path fill="#000000" opacity="1.000000" stroke="none" 
	d="
M816.333130,344.028900 
	C819.310730,343.595062 821.711792,344.379608 824.030273,345.259155 
	C832.423035,348.443115 835.773010,355.576233 832.988770,364.088989 
	C829.865479,373.638489 818.048950,380.131622 809.109131,377.210785 
	C803.331970,375.323303 799.571777,370.013702 799.712524,363.942017 
	C799.951721,353.619202 805.906616,346.334473 816.333130,344.028900 
z"/>
<path fill="#000000" opacity="1.000000" stroke="none" 
	d="
M325.203979,660.605957 
	C324.021149,659.115173 322.105927,658.128601 323.595795,656.165222 
	C328.487213,649.719177 333.424316,643.307800 338.444641,636.751526 
	C341.206421,638.557800 343.051392,640.554077 344.462433,643.079773 
	C342.767395,645.625549 339.617462,646.826050 338.860657,650.136108 
	C342.389099,650.096497 344.062958,646.916138 347.313110,646.130920 
	C349.130615,647.706055 351.025940,649.412598 352.401367,651.929077 
	C349.957245,654.467896 347.498260,656.708008 346.152893,659.940002 
	C348.011749,660.037231 349.228760,658.788696 350.539703,657.967346 
	C356.542023,654.206665 357.694580,654.577332 360.673065,661.640320 
	C354.920807,663.868774 349.835541,667.356934 344.451965,670.293518 
	C336.970490,674.374512 336.101166,674.143860 332.025665,666.374634 
	C332.597107,664.457031 334.884369,663.565674 335.150452,661.031433 
	C331.915710,660.602783 328.366852,666.225830 325.203979,660.605957 
z"/>
<path fill="#000000" opacity="1.000000" stroke="none" 
	d="
M467.962646,730.800537 
	C469.207764,728.089966 470.310913,725.692139 471.410553,723.301941 
	C478.406860,723.130066 478.406860,723.130066 478.380859,735.144043 
	C480.683075,732.035217 480.679016,728.436646 482.445282,725.154297 
	C484.830200,725.667969 487.516541,725.322754 490.163361,727.533813 
	C486.854736,734.836975 483.633209,742.256897 480.131104,749.541931 
	C478.490906,752.953796 475.710663,750.358093 473.496033,750.144714 
	C471.382050,749.940918 470.329102,748.563782 470.827789,746.255615 
	C471.209167,744.490540 471.419495,742.688538 470.960236,740.559326 
	C470.361084,741.705444 469.581268,742.794739 469.198669,744.009033 
	C468.274994,746.940613 467.266083,748.981812 463.330902,748.049377 
	C459.526062,747.147888 458.855560,745.148804 458.952087,741.673462 
	C459.140869,734.877869 460.371277,728.098450 459.231964,721.156433 
	C462.477875,719.889526 465.111420,721.354309 468.133698,722.365051 
	C467.572968,726.268188 467.038269,729.990295 466.506561,733.691345 
	C467.534607,733.173767 467.430267,732.012024 467.962646,730.800537 
z"/>
<path fill="#000000" opacity="1.000000" stroke="none" 
	d="
M634.199341,644.016235 
	C636.059143,644.931030 638.140198,644.776367 639.527161,647.442017 
	C621.529480,652.120789 603.772339,656.736938 586.015259,661.353149 
	C585.852783,660.963013 585.690308,660.572937 585.527832,660.182800 
	C593.855774,656.053162 602.183716,651.923523 610.571411,647.764282 
	C609.385681,644.284485 605.898376,645.354980 603.666748,642.423279 
	C621.358826,637.914307 638.593994,633.521729 655.829163,629.129150 
	C655.999695,629.535400 656.170227,629.941650 656.340698,630.347961 
	C647.932251,634.168152 639.523804,637.988342 631.143799,641.795593 
	C631.908081,643.498108 632.980774,643.560608 634.199341,644.016235 
z"/>
<path fill="#000000" opacity="1.000000" stroke="none" 
	d="
M404.514893,634.583191 
	C401.111908,632.890686 397.681061,632.075439 395.291992,628.832581 
	C412.317902,633.304871 429.343811,637.777161 446.793640,642.360840 
	C444.889374,645.584045 441.468597,644.549011 439.497742,646.744263 
	C447.688446,651.926392 456.626831,655.479675 465.023376,659.997986 
	C464.860687,660.403748 464.697998,660.809509 464.535309,661.215271 
	C446.892761,656.618713 429.250244,652.022156 411.091675,647.291138 
	C413.801147,644.090576 417.359253,644.527893 419.883698,642.111206 
	C415.179657,638.832825 409.867615,637.080139 404.514893,634.583191 
z"/>
<path fill="#000000" opacity="1.000000" stroke="none" 
	d="
M718.252441,656.788879 
	C715.837952,656.108154 713.784729,655.525146 710.889404,654.703003 
	C713.355347,656.951538 716.039917,657.886047 717.089722,660.566711 
	C715.688660,662.581360 714.429260,664.703918 711.792603,666.371155 
	C705.928101,660.824158 699.310730,656.156921 692.539185,651.758606 
	C695.428528,644.692444 696.672791,644.231506 706.763306,647.155334 
	C703.878662,645.177734 701.945618,643.852539 699.865051,642.426208 
	C700.666931,639.378662 703.114685,637.876465 705.397827,635.470703 
	C711.601929,640.947021 717.972778,645.899048 725.317627,650.083557 
	C723.378967,652.981995 722.673828,656.487366 718.252441,656.788879 
z"/>
<path fill="#000000" opacity="1.000000" stroke="none" 
	d="
M373.882385,687.912292 
	C375.943787,684.701782 377.794678,681.781128 379.633636,678.879395 
	C386.569672,681.741211 386.734192,682.111328 385.644867,692.279968 
	C387.220062,692.081970 387.562592,690.608337 388.377777,689.670959 
	C389.127930,688.808472 389.751007,687.835327 390.508728,686.803833 
	C393.232391,687.671509 395.309631,689.166565 397.408203,691.249084 
	C391.711639,697.493408 386.995209,704.272400 382.200653,710.828064 
	C375.524750,708.207458 375.379608,707.802429 377.119659,696.432190 
	C375.357849,699.217712 374.002350,701.360779 372.654083,703.492493 
	C369.602936,703.075378 367.697021,701.353638 365.788452,698.951294 
	C368.421631,695.360901 371.046753,691.781494 373.882385,687.912292 
z"/>
<path fill="#000000" opacity="1.000000" stroke="none" 
	d="
M382.151917,280.853333 
	C383.850861,279.789429 385.238068,278.875427 386.671448,278.040649 
	C393.590302,274.011169 396.532288,274.977905 399.384613,282.551758 
	C399.974335,284.117676 400.939117,284.286194 402.128632,284.872101 
	C406.990723,287.266846 407.767242,293.761383 403.717438,297.296478 
	C402.973297,297.946014 402.112579,298.475098 401.261902,298.987061 
	C398.439545,300.685730 395.597168,302.351227 392.531677,304.166077 
	C388.287384,297.462189 384.986298,290.556427 380.295837,284.526337 
	C378.874969,282.699585 380.822571,281.978912 382.151917,280.853333 
z"/>
<path fill="#000000" opacity="1.000000" stroke="none" 
	d="
M406.558899,725.842651 
	C401.978882,723.789001 397.721069,721.956055 393.737946,718.822449 
	C397.898529,711.351501 401.984314,704.014893 406.264465,696.329224 
	C410.738831,697.839905 414.735504,700.458435 418.745392,702.949341 
	C421.054718,704.383728 421.938812,706.977722 421.066193,709.556580 
	C419.243073,714.944702 416.296967,719.791870 412.799011,724.250610 
	C411.383087,726.055420 409.252716,726.650818 406.558899,725.842651 
M411.261475,705.844849 
	C407.508698,707.751953 407.006256,711.854187 405.108887,715.008606 
	C404.464203,716.080444 404.372375,717.269409 405.672943,718.030579 
	C407.271210,718.966187 408.150299,717.887878 408.873993,716.709534 
	C410.174500,714.592102 411.422363,712.441895 412.665283,710.289795 
	C413.610687,708.652771 413.732422,707.151001 411.261475,705.844849 
z"/>
<path fill="#000000" opacity="1.000000" stroke="none" 
	d="
M691.075806,664.823730 
	C692.692749,666.307800 694.093506,667.492432 695.394470,668.778076 
	C701.992126,675.297913 701.136902,681.929932 693.111267,686.636841 
	C690.173279,688.359802 687.373840,688.121216 684.847778,685.844482 
	C682.004517,683.281860 679.135742,680.734802 676.455872,678.006409 
	C671.735535,673.200623 671.887268,670.256104 676.872070,664.739014 
	C681.382935,659.746460 684.441528,659.468201 689.689697,663.581543 
	C690.081970,663.888916 690.439758,664.240112 691.075806,664.823730 
M684.402588,675.166992 
	C685.709290,676.422546 687.000916,677.694214 688.327576,678.928345 
	C689.341248,679.871399 690.433838,680.687256 691.743591,679.396851 
	C692.910034,678.247620 692.783569,676.929016 691.723328,675.891907 
	C689.373901,673.593628 686.936035,671.380798 684.455078,669.224304 
	C683.485779,668.381775 682.319397,668.320923 681.401794,669.438171 
	C680.646362,670.357910 680.889832,671.284424 681.599304,672.107910 
	C682.351624,672.981140 683.152588,673.812439 684.402588,675.166992 
z"/>
<path fill="#000000" opacity="1.000000" stroke="none" 
	d="
M607.699097,724.208069 
	C606.015259,720.222900 604.447021,716.603271 602.898132,713.028198 
	C609.294128,709.217346 609.869324,709.410767 612.333801,715.825073 
	C613.406311,718.616516 614.453125,721.422607 615.667664,724.152649 
	C616.364014,725.717651 616.844299,728.213562 619.303772,727.269714 
	C621.668335,726.362183 620.749756,724.240601 619.982849,722.566772 
	C617.921814,718.068481 616.712402,713.131165 613.026062,709.485474 
	C614.883362,706.882263 617.537903,706.527649 620.695068,705.735840 
	C623.797363,712.087891 626.486328,718.617676 628.608826,725.382324 
	C628.881531,726.251404 628.714844,727.365723 628.447998,728.277588 
	C627.440552,731.720642 621.554443,735.174744 616.614624,735.222839 
	C612.574402,735.262085 610.829163,732.577393 609.683105,729.192932 
	C609.151245,727.622314 608.442993,726.111511 607.699097,724.208069 
z"/>
<path fill="#000000" opacity="1.000000" stroke="none" 
	d="
M445.268799,714.573486 
	C449.385223,717.323486 450.036804,720.658203 448.188904,724.715393 
	C446.610382,728.181091 445.354919,731.806396 443.604401,735.178223 
	C441.206604,739.796692 438.224365,740.423706 432.161194,738.040283 
	C426.183868,735.690674 424.309082,733.082397 425.697784,728.148438 
	C426.724640,724.500000 428.182220,720.947998 429.721283,717.474182 
	C432.264893,711.733154 434.940094,710.662231 440.776520,712.732910 
	C442.178558,713.230408 443.542755,713.834473 445.268799,714.573486 
M439.532898,726.165588 
	C439.788696,723.775696 443.136505,720.631531 439.757751,719.206787 
	C435.888550,717.575256 436.311584,722.497681 434.694702,724.405273 
	C434.591125,724.527527 434.497650,724.698303 434.486481,724.852783 
	C434.308197,727.317871 430.429138,730.513916 434.625397,732.029785 
	C438.150635,733.303345 437.884735,728.826538 439.532898,726.165588 
z"/>
<path fill="#000000" opacity="1.000000" stroke="none" 
	d="
M548.775635,745.755737 
	C548.206360,741.739136 547.652954,738.149475 547.195312,734.547485 
	C546.473938,728.869629 549.055298,726.267395 556.577820,724.992126 
	C561.772522,724.111511 565.287170,726.184753 566.288147,730.989685 
	C566.993958,734.377991 567.321411,737.843323 567.893677,741.261536 
	C568.923523,747.412964 567.326416,750.629028 561.835693,751.794312 
	C553.474976,753.568665 549.778442,752.032715 548.775635,745.755737 
M554.831787,737.109680 
	C555.200439,739.225098 555.474548,741.363037 555.971375,743.447937 
	C556.296814,744.813477 557.102783,745.928406 558.811401,745.537537 
	C560.190613,745.222046 560.680542,744.119629 560.575073,742.892456 
	C560.376953,740.588501 559.940369,738.305908 559.705444,736.004028 
	C559.496033,733.952087 559.343018,731.531982 556.700256,731.695374 
	C553.845886,731.871704 554.377319,734.361755 554.831787,737.109680 
z"/>
<path fill="#000000" opacity="1.000000" stroke="none" 
	d="
M563.255676,270.066772 
	C559.704102,268.989807 556.257935,269.228546 552.906128,267.466248 
	C555.229248,259.573883 556.703979,251.519714 557.852722,243.145294 
	C560.485840,243.469498 562.940735,243.628815 565.336853,244.092285 
	C574.330750,245.831879 575.085327,246.738098 574.236816,255.983994 
	C573.952698,259.079895 573.059448,262.151031 572.172058,265.152893 
	C570.930725,269.352203 567.832214,270.739929 563.255676,270.066772 
M567.579956,254.559326 
	C567.567566,252.748032 567.806519,250.758835 564.717102,250.848679 
	C563.246948,254.788559 562.048645,258.770630 562.219788,263.056000 
	C565.390076,264.210876 565.858459,261.950439 566.451172,260.139404 
	C566.959717,258.585571 567.154053,256.928894 567.579956,254.559326 
z"/>
<path fill="#000000" opacity="1.000000" stroke="none" 
	d="
M377.267517,307.646301 
	C378.773682,308.906281 380.632355,309.180603 381.339691,310.857788 
	C377.149139,316.654053 375.669159,317.111725 371.323334,313.587189 
	C368.439972,316.620361 373.197327,323.890015 365.088287,324.099548 
	C360.839203,317.488464 358.348480,309.323517 353.325348,302.506409 
	C353.904724,301.821228 354.273468,301.267822 354.752258,300.836609 
	C361.166321,295.060120 361.123322,295.121124 367.785736,300.615356 
	C370.727081,303.040985 373.902008,305.183411 377.267517,307.646301 
z"/>
<path fill="#000000" opacity="1.000000" stroke="none" 
	d="
M502.593811,245.296768 
	C501.493927,237.191833 507.154083,242.125595 509.929535,240.420807 
	C510.398651,248.326004 510.886017,255.563126 511.230377,262.807068 
	C511.374969,265.848785 509.066101,266.090271 506.799438,266.236267 
	C504.304443,266.396912 503.921814,264.876587 503.604980,262.815369 
	C503.270905,260.642029 504.999268,256.546906 501.411682,256.818878 
	C497.527863,257.113312 499.575867,261.015869 499.901520,263.325684 
	C500.266815,265.916382 499.575012,267.112305 496.960175,267.263062 
	C494.525116,267.403473 492.868469,267.034363 492.663483,263.952728 
	C492.246063,257.677246 491.515442,251.420959 490.833801,245.165497 
	C490.575073,242.791245 491.583313,241.718872 493.870789,241.731476 
	C495.810913,241.742157 498.095612,241.235352 498.275238,244.296219 
	C498.304413,244.793793 498.287323,245.295959 498.345795,245.789581 
	C498.564514,247.636887 497.737640,250.440109 500.703125,250.374817 
	C503.898193,250.304459 502.364777,247.449173 502.593811,245.296768 
z"/>
<path fill="#000000" opacity="1.000000" stroke="none" 
	d="
M644.411316,290.335693 
	C639.976318,297.025757 638.042358,297.756409 632.586121,295.040344 
	C625.750488,291.637604 624.943970,288.680695 629.066711,282.100067 
	C630.744202,279.422455 632.405396,276.733948 634.126404,274.084442 
	C637.611877,268.718414 641.644592,268.071289 647.619690,271.873962 
	C652.109375,274.731293 652.450562,277.539642 648.925537,283.320801 
	C647.540833,285.591644 646.044312,287.794281 644.411316,290.335693 
M640.361389,283.908142 
	C641.108582,281.226807 644.964966,279.319702 642.606201,275.638611 
	C637.737244,279.264679 634.256897,286.135864 635.539307,289.465820 
	C638.326599,288.986908 638.607727,286.250153 640.361389,283.908142 
z"/>
<path fill="#000000" opacity="1.000000" stroke="none" 
	d="
M309.175964,371.622070 
	C310.806213,372.740417 312.560181,373.132385 313.227783,374.520172 
	C313.928711,377.036224 310.579681,377.153809 310.880096,379.251526 
	C313.854828,379.660400 313.854828,379.660400 316.592255,371.929474 
	C322.676544,374.583801 323.120911,375.574127 320.355621,380.822327 
	C318.808533,383.758484 317.147125,386.634766 315.513062,389.524323 
	C315.275940,389.943726 314.903351,390.286560 314.301575,391.021027 
	C307.366791,386.636749 300.500153,382.109344 292.188782,378.599945 
	C294.958649,373.760529 297.464874,369.381683 299.947479,365.044159 
	C302.782806,365.401337 304.660980,366.605896 306.303101,368.206543 
	C306.471954,371.040924 301.339752,372.506531 303.439117,376.137573 
	C306.932007,375.406647 304.600159,370.207825 309.175964,371.622070 
z"/>
<path fill="#000000" opacity="1.000000" stroke="none" 
	d="
M684.685730,319.113129 
	C681.592163,314.722504 686.736572,315.061829 687.383362,312.961029 
	C689.733765,313.273224 689.828064,316.127991 692.879028,316.057495 
	C694.388977,311.250580 689.113159,311.009338 687.241028,308.207306 
	C689.537415,306.781616 690.437134,302.267548 694.498596,305.134186 
	C701.565857,310.122406 703.189880,315.005829 699.171082,319.457397 
	C696.691162,322.204407 694.029541,324.638702 691.922546,327.834808 
	C689.048340,332.194763 684.424683,332.416473 680.168030,329.312225 
	C677.643188,327.470978 675.061340,325.635193 673.547729,322.669525 
	C674.845520,320.340088 676.772888,318.894592 679.241516,317.579895 
	C680.182617,319.158691 680.954224,320.734741 681.991638,322.110382 
	C682.933105,323.358826 683.990356,325.268372 685.941101,323.603638 
	C688.117065,321.746704 686.534424,320.457489 684.685730,319.113129 
z"/>
<path fill="#000000" opacity="1.000000" stroke="none" 
	d="
M614.896667,255.919769 
	C618.842163,257.394104 622.876038,258.384460 623.003357,263.276367 
	C623.126099,267.989380 620.305542,270.962524 614.609192,272.865356 
	C612.619263,273.530060 610.332031,273.692291 608.707153,275.774628 
	C610.515198,278.357239 613.937744,277.560028 616.191467,279.388611 
	C616.431580,281.632233 615.080139,283.294739 613.479858,285.544983 
	C608.717773,283.659882 603.874756,281.742737 599.243958,279.909637 
	C599.416565,269.220490 607.884399,267.419067 615.568115,265.154022 
	C613.391174,261.035828 610.051941,261.912903 607.337891,260.689606 
	C608.390442,256.944366 609.466431,253.604141 614.896667,255.919769 
z"/>
<path fill="#000000" opacity="1.000000" stroke="none" 
	d="
M525.225220,747.815674 
	C528.991150,745.399597 526.159607,744.818604 524.476501,744.086426 
	C520.506470,742.359375 516.921936,740.570007 517.618713,735.116577 
	C518.116333,731.221558 519.855042,728.944641 523.836060,728.676636 
	C525.818176,728.543274 527.818420,728.444641 529.798096,728.554443 
	C535.651611,728.879028 535.914307,729.336182 534.357361,735.777222 
	C531.697205,736.184998 528.925781,734.271301 526.156006,735.927979 
	C526.908142,738.275391 529.086487,738.573059 530.821716,739.208801 
	C534.906677,740.705627 535.764343,743.719849 535.295898,747.570618 
	C534.830322,751.398132 532.551208,753.482666 528.929321,754.253967 
	C527.795715,754.495361 526.621765,754.570557 525.461487,754.660034 
	C518.925232,755.164612 518.085510,754.203979 519.011536,747.327759 
	C520.966003,747.510986 522.920227,747.697937 525.225220,747.815674 
z"/>
<path fill="#000000" opacity="1.000000" stroke="none" 
	d="
M737.623535,620.412476 
	C740.762207,624.860657 738.812073,635.081116 734.497681,636.885620 
	C731.669922,638.068298 729.747742,635.602478 727.629517,634.110535 
	C731.689087,629.444336 731.689087,629.444336 732.174927,625.900085 
	C729.483337,625.951904 727.565430,627.660706 725.441040,628.763550 
	C722.445435,630.318665 719.644653,630.147949 717.110962,627.935669 
	C714.561523,625.709473 714.136475,622.828247 715.123901,619.730469 
	C715.523987,618.475586 716.147217,617.268250 716.818237,616.127136 
	C720.616638,609.667786 720.962952,609.623657 727.206482,614.506165 
	C726.264771,617.181213 722.213501,617.431458 722.138000,621.093811 
	C724.694214,622.562439 726.553101,620.460571 728.311584,619.448120 
	C731.641418,617.530762 734.522827,617.369812 737.623535,620.412476 
z"/>
<path fill="#000000" opacity="1.000000" stroke="none" 
	d="
M525.634888,246.128479 
	C525.707275,244.245728 525.774292,242.785110 525.868530,240.730713 
	C529.344971,240.730713 532.616943,240.642975 535.882507,240.750381 
	C541.370667,240.930923 541.908447,241.793884 540.424072,247.562653 
	C538.948364,248.584045 537.562378,247.276688 536.114807,247.386505 
	C534.698486,247.493973 532.575256,246.922333 532.735229,249.119034 
	C532.894897,251.311539 534.813904,250.625168 536.262878,250.252563 
	C536.721008,250.134750 537.192200,250.067596 538.517334,249.810333 
	C536.992737,252.771133 539.776184,257.645599 533.430664,256.824524 
	C532.625610,256.720337 532.283752,257.392059 532.157288,258.075470 
	C531.965637,259.110260 532.530945,259.650818 533.497253,259.710175 
	C535.784241,259.850647 538.075012,259.929352 540.529480,260.040497 
	C540.904907,262.452362 540.494019,264.450775 539.557739,266.719879 
	C534.269531,266.428406 529.065063,266.141510 523.453979,265.832214 
	C524.226562,258.985077 524.928040,252.767868 525.634888,246.128479 
z"/>
<path fill="#000000" opacity="1.000000" stroke="none" 
	d="
M663.909668,313.984619 
	C659.207214,311.598053 655.536194,308.311768 651.658691,304.856323 
	C654.969177,299.626617 657.800293,294.535583 665.119446,295.631165 
	C666.789246,295.881104 669.284180,296.322754 669.699158,293.895905 
	C670.084106,291.644623 667.726501,291.164978 666.086975,290.469269 
	C665.210876,290.097534 664.064392,290.298950 663.361633,288.841248 
	C665.031616,287.224792 665.001282,283.204407 669.016052,284.482574 
	C675.011536,286.391418 678.683105,291.161346 677.617493,295.119629 
	C676.219543,300.312134 673.565247,302.228516 667.919983,302.420502 
	C665.906738,302.488983 663.537415,301.624725 662.049866,303.879822 
	C662.277710,305.525970 663.686218,305.929138 664.668396,306.756348 
	C665.666565,307.596985 667.285645,307.465515 667.984375,309.005646 
	C667.545227,311.163605 666.068604,312.650574 663.909668,313.984619 
z"/>
<path fill="#000000" opacity="1.000000" stroke="none" 
	d="
M472.986511,255.886154 
	C476.852722,256.938629 478.504059,258.979980 478.431824,262.834167 
	C478.359192,266.708374 476.723663,269.130035 473.313080,270.509216 
	C472.101685,270.999084 470.774292,271.222290 469.484528,271.494781 
	C463.234497,272.815338 462.827759,272.473633 462.657654,265.576324 
	C465.419220,265.074738 468.982452,266.876282 471.017395,263.438202 
	C469.677826,260.985657 467.190887,261.528351 465.231750,260.995941 
	C461.324402,259.934113 459.376312,257.612610 459.383392,253.508545 
	C459.390320,249.491821 461.562286,247.463821 465.197571,246.571869 
	C466.322052,246.295944 467.425781,245.896088 468.564850,245.725128 
	C474.884460,244.776550 474.887177,244.794724 475.658966,251.448212 
	C473.584808,253.281723 470.333557,251.309235 468.170227,253.784592 
	C469.007141,255.744278 470.950775,255.494354 472.986511,255.886154 
z"/>
<path fill="#000000" opacity="1.000000" stroke="none" 
	d="
M312.326752,349.289124 
	C312.868164,346.580658 314.050903,344.605286 315.519897,342.765686 
	C319.413940,337.889191 320.490387,337.908051 324.874329,343.055420 
	C323.708130,345.339203 320.296906,345.829712 319.875519,349.604797 
	C325.760315,348.743073 332.790863,341.489105 336.786804,350.939117 
	C339.165009,356.563324 334.245636,360.667480 331.610565,365.239258 
	C328.826752,364.280640 326.781738,363.087646 324.860138,361.122894 
	C326.830261,358.755493 330.145660,357.583893 329.998596,353.183899 
	C323.347046,355.569733 315.415527,362.192169 312.326752,349.289124 
z"/>
<path fill="#000000" opacity="1.000000" stroke="none" 
	d="
M641.957764,692.932861 
	C643.873657,691.941162 645.331970,690.738464 647.376404,690.804443 
	C648.815552,692.292175 649.040833,694.290100 649.691650,696.597412 
	C645.186707,697.909851 646.662354,700.374878 648.421265,703.207886 
	C650.851135,707.121704 653.166077,711.100159 656.372498,714.650574 
	C654.169678,716.941650 651.669495,718.036133 648.894897,719.345642 
	C645.931580,713.556152 642.878662,708.282715 639.302673,703.237427 
	C637.286560,702.864807 637.065125,705.462402 634.943542,705.758728 
	C633.709412,704.153320 632.327332,702.355591 630.809387,700.381042 
	C634.022522,697.028381 638.127930,695.494446 641.957764,692.932861 
z"/>
<path fill="#000000" opacity="1.000000" stroke="none" 
	d="
M352.236877,337.774109 
	C347.729492,336.969971 346.045349,332.698456 342.661774,330.516632 
	C340.894440,329.376984 339.471313,327.703583 338.158325,326.512238 
	C335.641510,326.829163 335.816956,329.275146 334.228943,329.924347 
	C328.971924,327.432892 328.691315,326.351624 332.243530,322.133087 
	C333.635162,320.480377 335.045776,318.842957 336.474915,317.222565 
	C340.683868,312.450439 341.164001,312.448517 345.782227,317.135132 
	C345.817627,318.764343 343.377625,318.949951 343.678925,321.144592 
	C347.351013,325.130920 351.597931,329.023895 356.305786,332.414093 
	C355.946198,334.939209 353.718994,335.883667 352.236877,337.774109 
z"/>
<path fill="#000000" opacity="1.000000" stroke="none" 
	d="
M597.539185,742.899109 
	C592.666565,744.104919 588.161621,745.159607 583.398010,746.274841 
	C581.162109,737.800659 579.842957,729.441589 576.680115,721.567871 
	C578.833191,720.070923 581.022583,719.488098 583.605286,719.447083 
	C585.765198,723.560181 586.254333,728.224731 587.460876,732.667419 
	C588.951782,738.156982 589.202332,738.263123 594.503662,735.712646 
	C595.075745,735.437439 595.710327,735.292175 596.665894,734.967834 
	C597.025574,737.737244 600.238342,739.676270 597.539185,742.899109 
z"/>
<path fill="#000000" opacity="1.000000" stroke="none" 
	d="
M411.369995,270.691681 
	C410.627472,269.038116 409.219879,268.107574 409.296600,266.359985 
	C411.059937,264.903931 412.968781,263.664917 415.547668,263.102478 
	C419.420288,267.808411 419.691742,274.485352 423.669952,279.061279 
	C426.262787,279.165253 427.484833,276.814331 429.560150,276.343842 
	C433.587891,282.051514 433.437225,282.711945 427.519684,285.202423 
	C424.664429,286.404022 421.794189,287.570007 418.602570,288.887573 
	C416.617676,282.425018 414.186310,276.674744 411.369995,270.691681 
z"/>
<path fill="#000000" opacity="1.000000" stroke="none" 
	d="
M662.491028,691.508301 
	C660.372742,689.152405 658.488831,687.059326 656.377747,684.713806 
	C657.785400,682.170898 660.409729,680.996277 662.600342,678.995544 
	C668.287170,685.499634 672.837891,692.672180 679.298706,698.833435 
	C677.072083,700.763306 675.117554,702.457397 672.888672,704.389160 
	C669.334778,699.976807 666.030151,695.874023 662.491028,691.508301 
z"/>
<path fill="#000000" opacity="1.000000" stroke="none" 
	d="
M363.056580,670.032471 
	C366.426483,666.010254 366.868286,666.140625 372.111359,672.671082 
	C366.431824,678.480408 360.514496,684.194397 355.676208,690.936157 
	C352.714722,689.534363 351.029236,687.418640 349.121155,685.134094 
	C354.504608,680.519409 358.561157,675.318298 363.056580,670.032471 
z"/>
<path fill="#000000" opacity="1.000000" stroke="none" 
	d="
M441.218201,268.628784 
	C439.602112,264.066803 438.136810,259.865295 436.604797,255.472519 
	C438.278015,253.676743 440.721893,253.401794 443.654297,252.814301 
	C446.107330,260.301147 448.547882,267.749939 451.018799,275.291473 
	C449.116455,277.175079 446.756104,277.642883 444.092133,278.014801 
	C443.169067,274.955414 442.269043,271.972351 441.218201,268.628784 
z"/>
<path fill="#000000" opacity="1.000000" stroke="none" 
	d="
M603.592163,628.507202 
	C607.427124,627.379761 610.877319,626.358093 614.327576,625.336365 
	C613.164856,628.350464 610.254761,628.667053 607.975037,630.367371 
	C607.971802,631.610229 610.299194,630.866028 609.656311,633.353699 
	C602.558594,635.266907 594.826294,637.351135 586.124573,639.696655 
	C588.061157,636.196899 590.932983,636.685974 592.594421,635.287109 
	C594.001831,634.102112 598.610229,635.541504 596.463867,631.038025 
	C596.425537,630.957520 597.678833,630.085205 598.414978,629.848206 
	C599.982605,629.343567 601.606567,629.014221 603.592163,628.507202 
z"/>
<path fill="#000000" opacity="1.000000" stroke="none" 
	d="
M460.760773,638.276123 
	C455.437012,636.894531 450.509247,635.516479 445.544952,634.285706 
	C442.938782,633.639526 441.920502,632.706177 444.341736,630.558899 
	C442.769012,628.401855 439.335419,629.009277 437.434723,625.356201 
	C444.253723,627.301514 450.153717,628.984619 455.628662,630.546448 
	C456.540894,632.477966 454.145416,632.006042 454.562195,633.084473 
	C458.422302,634.732666 462.141724,636.320740 466.126770,638.022278 
	C464.110443,640.026245 462.640198,638.281982 460.760773,638.276123 
z"/>
</svg>